<?xml version="1.0" encoding="UTF-8" standalone="no"?>
<!-- Created with Inkscape (http://www.inkscape.org/) -->
<svg
   xmlns:dc="http://purl.org/dc/elements/1.1/"
   xmlns:cc="http://creativecommons.org/ns#"
   xmlns:rdf="http://www.w3.org/1999/02/22-rdf-syntax-ns#"
   xmlns:svg="http://www.w3.org/2000/svg"
   xmlns="http://www.w3.org/2000/svg"
   xmlns:sodipodi="http://sodipodi.sourceforge.net/DTD/sodipodi-0.dtd"
   xmlns:inkscape="http://www.inkscape.org/namespaces/inkscape"
   width="123.93562"
   height="50.651249"
   id="svg8718"
   sodipodi:version="0.32"
   inkscape:version="0.46"
   version="1.0"
   sodipodi:docname="Université Grenoble 1.svg"
   inkscape:output_extension="org.inkscape.output.svg.inkscape">
  <defs
     id="defs8720">
    <clipPath
       clipPathUnits="userSpaceOnUse"
       id="clipPath165">
      <path
         d="M 0,595.32 L 566.88,595.32 L 566.88,0 L 0,0 L 0,595.32 z"
         id="path167" />
    </clipPath>
    <clipPath
       clipPathUnits="userSpaceOnUse"
       id="clipPath159">
      <path
         d="M 0,595 L 566,595 L 566,0 L 0,0 L 0,595 z"
         id="path161" />
    </clipPath>
    <clipPath
       clipPathUnits="userSpaceOnUse"
       id="clipPath153">
      <path
         d="M 16.173,535.972 L 125.378,535.972 L 125.378,492.622 L 16.173,492.622 L 16.173,535.972 z"
         clip-rule="evenodd"
         id="path155" />
    </clipPath>
    <clipPath
       clipPathUnits="userSpaceOnUse"
       id="clipPath147">
      <path
         d="M 11.86,385.002 L 199.496,385.002 L 199.496,538.68 L 11.86,538.68 L 11.86,385.002 z"
         id="path149" />
    </clipPath>
    <inkscape:perspective
       sodipodi:type="inkscape:persp3d"
       inkscape:vp_x="0 : 526.18109 : 1"
       inkscape:vp_y="0 : 1000 : 0"
       inkscape:vp_z="744.09448 : 526.18109 : 1"
       inkscape:persp3d-origin="372.04724 : 350.78739 : 1"
       id="perspective8726" />
  </defs>
  <sodipodi:namedview
     id="base"
     pagecolor="#ffffff"
     bordercolor="#666666"
     borderopacity="1.0"
     inkscape:pageopacity="0.0"
     inkscape:pageshadow="2"
     inkscape:zoom="7.4877583"
     inkscape:cx="61.967813"
     inkscape:cy="25.325624"
     inkscape:document-units="px"
     inkscape:current-layer="layer1"
     showgrid="false"
     inkscape:window-width="1024"
     inkscape:window-height="712"
     inkscape:window-x="-4"
     inkscape:window-y="-4" />
  <metadata
     id="metadata8723">
    <rdf:RDF>
      <cc:Work
         rdf:about="">
        <dc:format>image/svg+xml</dc:format>
        <dc:type
           rdf:resource="http://purl.org/dc/dcmitype/StillImage" />
      </cc:Work>
    </rdf:RDF>
  </metadata>
  <g
     inkscape:label="Calque 1"
     inkscape:groupmode="layer"
     id="layer1"
     transform="translate(-286.60362,-398.46515)">
    <g
       transform="matrix(1.25,0,0,-1.25,262.77612,1066.3889)"
       id="g143">
      <g
         id="g145"
         clip-path="url(#clipPath147)">
        <g
           id="g151"
           clip-path="url(#clipPath153)">
          <g
             id="g157"
             clip-path="url(#clipPath159)">
            <g
               id="g163"
               clip-path="url(#clipPath165)">
              <path
                 d="M 25.394,531.397 L 31.658,531.397 L 31.658,525.134 L 25.394,525.134 L 25.394,531.397 z"
                 style="fill:#ffdc00;fill-opacity:1;fill-rule:nonzero;stroke:none"
                 id="path169" />
              <path
                 d="M 31.657,531.397 L 50.448,531.397 L 50.448,512.606 L 31.657,512.606 L 31.657,531.397 z"
                 style="fill:#808284;fill-opacity:1;fill-rule:nonzero;stroke:none"
                 id="path171" />
              <path
                 d="M 19.062,502.396 C 22.877,504.918 25.394,509.245 25.394,514.161 L 25.394,518.869 L 20.696,518.869 L 20.696,525.134 L 31.657,525.134 L 31.657,514.161 C 31.657,506.549 27.479,499.914 21.292,496.421 L 19.062,502.396"
                 style="fill:#ed232a;fill-opacity:1;fill-rule:nonzero;stroke:none"
                 id="path173" />
              <path
                 d="M 50.449,531.397 C 44.35,529.049 39.999,520.956 38.121,512.615 L 45.745,512.615 L 45.745,506.351 L 36.685,506.344 C 35.523,499.414 35.414,493.832 35.414,493.832 L 35.414,493.818 L 28.627,493.818 L 28.633,493.845 C 28.633,493.845 31.049,525.376 41.049,531.397"
                 style="fill:#ed232a;fill-opacity:1;fill-rule:nonzero;stroke:none"
                 id="path175" />
              <path
                 d="M 25.91,533.328 L 25.91,533.611 L 26.534,533.611 L 26.534,532.8 L 26.372,532.8 L 26.322,532.975 C 26.209,532.837 26.085,532.778 25.908,532.778 C 25.463,532.778 25.28,533.147 25.28,533.545 C 25.28,533.956 25.481,534.339 25.939,534.339 C 26.266,534.339 26.487,534.14 26.534,533.819 L 26.198,533.773 C 26.182,533.925 26.1,534.053 25.93,534.053 C 25.68,534.053 25.643,533.729 25.643,533.541 C 25.643,533.344 25.698,533.065 25.946,533.065 C 26.1,533.065 26.207,533.173 26.198,533.328 L 25.91,533.328"
                 style="fill:#292526;fill-opacity:1;fill-rule:nonzero;stroke:none"
                 id="path177" />
              <path
                 d="M 28.606,533.66 L 28.8,533.66 C 28.874,533.66 28.953,533.654 29.017,533.691 C 29.075,533.727 29.106,533.797 29.106,533.863 C 29.106,533.923 29.07,533.987 29.019,534.018 C 28.959,534.056 28.858,534.047 28.792,534.047 L 28.606,534.047 L 28.606,533.66 z M 28.606,532.8 L 28.252,532.8 L 28.252,534.317 L 28.891,534.317 C 29.026,534.317 29.163,534.314 29.28,534.239 C 29.404,534.157 29.472,534.01 29.472,533.861 C 29.472,533.689 29.373,533.53 29.21,533.47 L 29.49,532.8 L 29.097,532.8 L 28.864,533.399 L 28.606,533.399 L 28.606,532.8"
                 style="fill:#292526;fill-opacity:1;fill-rule:nonzero;stroke:none"
                 id="path179" />
              <path
                 d="M 31.494,534.022 L 31.494,533.716 L 32.069,533.716 L 32.069,533.43 L 31.494,533.43 L 31.494,533.094 L 32.224,533.094 L 32.224,532.8 L 31.14,532.8 L 31.14,534.317 L 32.224,534.317 L 32.224,534.022 L 31.494,534.022"
                 style="fill:#292526;fill-opacity:1;fill-rule:nonzero;stroke:none"
                 id="path181" />
              <path
                 d="M 35.025,532.8 L 34.722,532.8 L 34.141,533.819 L 34.132,533.819 L 34.132,532.8 L 33.858,532.8 L 33.858,534.317 L 34.24,534.317 L 34.746,533.426 L 34.751,533.426 L 34.751,534.317 L 35.025,534.317 L 35.025,532.8"
                 style="fill:#292526;fill-opacity:1;fill-rule:nonzero;stroke:none"
                 id="path183" />
              <path
                 d="M 37.108,533.877 C 37.073,533.786 37.06,533.656 37.06,533.561 C 37.06,533.37 37.088,533.068 37.338,533.068 C 37.46,533.068 37.526,533.128 37.566,533.24 C 37.601,533.333 37.612,533.459 37.612,533.558 C 37.612,533.669 37.601,533.799 37.557,533.901 C 37.513,534.003 37.449,534.049 37.338,534.049 C 37.216,534.049 37.15,533.987 37.108,533.877 z M 36.848,533.017 C 36.737,533.173 36.688,533.37 36.688,533.561 C 36.688,533.963 36.89,534.339 37.338,534.339 C 37.539,534.339 37.699,534.273 37.82,534.107 C 37.928,533.958 37.984,533.744 37.984,533.561 C 37.984,533.388 37.938,533.178 37.84,533.034 C 37.723,532.862 37.544,532.778 37.338,532.778 C 37.132,532.778 36.966,532.849 36.848,533.017"
                 style="fill:#292526;fill-opacity:1;fill-rule:nonzero;stroke:none"
                 id="path185" />
              <path
                 d="M 40.007,533.081 L 40.252,533.081 C 40.316,533.081 40.398,533.076 40.454,533.114 C 40.505,533.147 40.533,533.209 40.533,533.271 C 40.533,533.328 40.498,533.388 40.447,533.417 C 40.397,533.446 40.326,533.446 40.268,533.446 L 40.007,533.446 L 40.007,533.081 z M 40.007,533.716 L 40.249,533.716 C 40.31,533.716 40.383,533.711 40.436,533.751 C 40.478,533.782 40.5,533.837 40.5,533.888 C 40.5,533.943 40.474,533.996 40.425,534.025 C 40.374,534.053 40.281,534.047 40.221,534.047 L 40.007,534.047 L 40.007,533.716 z M 40.333,534.317 C 40.451,534.317 40.575,534.317 40.679,534.25 C 40.801,534.173 40.865,534.063 40.865,533.919 C 40.865,533.746 40.75,533.631 40.591,533.592 L 40.591,533.587 C 40.779,533.55 40.907,533.406 40.907,533.209 C 40.907,533.076 40.827,532.959 40.721,532.882 C 40.611,532.8 40.463,532.8 40.333,532.8 L 39.654,532.8 L 39.654,534.317 L 40.333,534.317"
                 style="fill:#292526;fill-opacity:1;fill-rule:nonzero;stroke:none"
                 id="path187" />
              <path
                 d="M 43.497,533.101 L 43.497,532.8 L 42.532,532.8 L 42.532,534.317 L 42.886,534.317 L 42.886,533.101 L 43.497,533.101"
                 style="fill:#292526;fill-opacity:1;fill-rule:nonzero;stroke:none"
                 id="path189" />
              <path
                 d="M 45.436,534.022 L 45.436,533.716 L 46.011,533.716 L 46.011,533.43 L 45.436,533.43 L 45.436,533.094 L 46.166,533.094 L 46.166,532.8 L 45.082,532.8 L 45.082,534.317 L 46.166,534.317 L 46.166,534.022 L 45.436,534.022"
                 style="fill:#292526;fill-opacity:1;fill-rule:nonzero;stroke:none"
                 id="path191" />
              <path
                 d="M 49.881,534.014 C 50.072,534.071 50.282,534.149 50.394,534.317 L 50.651,534.317 L 50.651,533.074 L 51.071,533.074 L 51.071,532.8 L 49.844,532.8 L 49.844,533.074 L 50.304,533.074 L 50.304,533.93 L 49.881,533.704 L 49.881,534.014"
                 style="fill:#292526;fill-opacity:1;fill-rule:nonzero;stroke:none"
                 id="path193" />
              <path
                 d="M 55.039,511.026 L 118.1,511.026"
                 style="fill:none;stroke:#ed232a;stroke-width:0.221;stroke-linecap:butt;stroke-linejoin:miter;stroke-miterlimit:4;stroke-dasharray:none;stroke-opacity:1"
                 id="path195" />
              <path
                 d="M 87.829,523.492 L 87.829,523.694 C 87.829,524.191 88.323,523.57 88.323,524.506 L 88.323,530.4 C 88.323,531.335 87.829,530.715 87.829,531.211 L 87.829,531.414 L 89.743,531.414 L 89.743,531.211 C 89.743,530.715 89.248,531.335 89.248,530.4 L 89.248,524.506 C 89.248,523.57 89.743,524.191 89.743,523.694 L 89.743,523.492 L 87.829,523.492"
                 style="fill:#292526;fill-opacity:1;fill-rule:nonzero;stroke:none"
                 id="path197" />
              <path
                 d="M 93.127,524.506 C 93.127,523.57 93.667,524.191 93.667,523.694 L 93.667,523.492 L 91.663,523.492 L 91.663,523.694 C 91.663,524.191 92.202,523.57 92.202,524.506 L 92.202,530.907 L 91.708,530.907 C 90.046,530.907 90.944,529.566 90.216,529.566 L 90.046,529.566 L 90.046,531.583 C 90.216,531.459 90.459,531.414 90.648,531.414 L 94.681,531.414 C 94.87,531.414 95.113,531.459 95.283,531.583 L 95.283,529.566 L 95.113,529.566 C 94.384,529.566 95.283,530.907 93.621,530.907 L 93.127,530.907 L 93.127,524.506"
                 style="fill:#292526;fill-opacity:1;fill-rule:nonzero;stroke:none"
                 id="path199" />
              <path
                 d="M 58.815,531.424 L 58.815,531.221 C 58.815,530.624 58.293,531.469 58.293,529.846 L 58.293,526.026 C 58.293,524.234 57.368,523.299 55.985,523.299 C 54.529,523.299 53.649,524.188 53.649,525.947 L 53.649,530.409 C 53.649,531.345 53.155,530.725 53.155,531.221 L 53.155,531.424 L 55.069,531.424 L 55.069,531.221 C 55.069,530.725 54.574,531.345 54.574,530.409 L 54.574,525.845 C 54.574,524.583 55.095,523.839 56.12,523.839 C 57.674,523.839 57.8,525.485 57.8,526.093 L 57.8,529.846 C 57.8,531.469 57.251,530.624 57.251,531.221 L 57.251,531.424 L 58.815,531.424"
                 style="fill:#292526;fill-opacity:1;fill-rule:nonzero;stroke:none"
                 id="path201" />
              <path
                 d="M 60.126,525.079 C 60.126,523.501 60.746,524.369 60.746,523.704 L 60.746,523.501 L 59.066,523.501 L 59.066,523.704 C 59.066,524.369 59.632,523.501 59.632,525.079 L 59.632,530.409 C 59.632,531.345 59.12,530.725 59.12,531.221 L 59.12,531.424 L 60.809,531.424 L 63.765,525.789 L 63.765,529.846 C 63.765,531.424 63.216,530.556 63.216,531.221 L 63.216,531.424 L 64.807,531.424 L 64.807,531.221 C 64.807,530.556 64.258,531.424 64.258,529.846 L 64.258,523.501 L 63.827,523.501 L 60.126,530.556 L 60.126,525.079"
                 style="fill:#292526;fill-opacity:1;fill-rule:nonzero;stroke:none"
                 id="path203" />
              <path
                 d="M 65.138,523.501 L 65.138,523.704 C 65.138,524.2 65.632,523.58 65.632,524.515 L 65.632,530.409 C 65.632,531.345 65.138,530.725 65.138,531.221 L 65.138,531.424 L 67.052,531.424 L 67.052,531.221 C 67.052,530.725 66.557,531.345 66.557,530.409 L 66.557,524.515 C 66.557,523.58 67.052,524.2 67.052,523.704 L 67.052,523.501 L 65.138,523.501"
                 style="fill:#292526;fill-opacity:1;fill-rule:nonzero;stroke:none"
                 id="path205" />
              <path
                 d="M 70.389,525.056 L 71.881,530.026 C 71.934,530.195 72.006,530.466 72.006,530.646 C 72.006,531.131 71.584,530.849 71.584,531.221 L 71.584,531.424 L 73.111,531.424 L 73.111,531.221 C 73.111,530.759 72.833,531.446 72.455,530.207 L 70.371,523.423 L 69.922,523.423 L 67.811,530.466 C 67.568,531.277 67.272,530.736 67.272,531.221 L 67.272,531.424 L 69.159,531.424 L 69.159,531.221 C 69.159,530.792 68.728,531.119 68.728,530.691 C 68.728,530.578 68.781,530.421 68.808,530.319 L 70.389,525.056"
                 style="fill:#292526;fill-opacity:1;fill-rule:nonzero;stroke:none"
                 id="path207" />
              <path
                 d="M 73.263,523.704 C 73.263,524.2 73.757,523.58 73.757,524.515 L 73.757,530.409 C 73.757,531.345 73.272,530.725 73.272,531.221 L 73.272,531.424 L 76.911,531.424 C 77.099,531.424 77.342,531.469 77.513,531.593 L 77.513,529.632 L 77.342,529.632 C 76.749,529.632 77.288,530.916 75.994,530.916 L 74.682,530.916 L 74.682,527.874 L 75.374,527.874 C 76.336,527.874 75.743,528.629 76.3,528.629 L 76.452,528.629 L 76.452,526.555 L 76.3,526.555 C 75.716,526.555 76.228,527.367 75.374,527.367 L 74.682,527.367 L 74.682,524.009 L 76.183,524.009 C 77.89,524.009 77.054,525.564 77.728,525.564 L 77.89,525.564 L 77.89,523.501 L 73.263,523.501 L 73.263,523.704"
                 style="fill:#292526;fill-opacity:1;fill-rule:nonzero;stroke:none"
                 id="path209" />
              <path
                 d="M 95.609,523.704 C 95.609,524.2 96.104,523.58 96.104,524.515 L 96.104,530.409 C 96.104,531.345 95.618,530.725 95.618,531.221 L 95.618,531.424 L 99.256,531.424 C 99.445,531.424 99.688,531.469 99.858,531.593 L 99.858,529.632 L 99.688,529.632 C 99.094,529.632 99.634,530.916 98.34,530.916 L 97.028,530.916 L 97.028,527.874 L 97.72,527.874 C 98.681,527.874 98.089,528.629 98.646,528.629 L 98.799,528.629 L 98.799,526.555 L 98.646,526.555 C 98.062,526.555 98.573,527.367 97.72,527.367 L 97.028,527.367 L 97.028,524.009 L 98.529,524.009 C 100.236,524.009 99.4,525.564 100.074,525.564 L 100.236,525.564 L 100.236,523.501 L 95.609,523.501 L 95.609,523.704"
                 style="fill:#292526;fill-opacity:1;fill-rule:nonzero;stroke:none"
                 id="path211" />
              <path
                 d="M 80.349,527.829 C 81.05,527.829 81.786,528.212 81.786,529.451 C 81.786,530.477 81.176,530.95 80.6,530.95 L 79.451,530.95 L 79.451,527.829 L 80.349,527.829 z M 79.451,524.515 C 79.451,523.58 79.945,524.2 79.945,523.704 L 79.945,523.501 L 78.022,523.501 L 78.022,523.704 C 78.022,524.2 78.525,523.58 78.525,524.515 L 78.525,530.409 C 78.525,531.345 78.032,530.725 78.032,531.221 L 78.032,531.424 L 80.87,531.424 C 81.535,531.424 82.783,531.029 82.783,529.508 C 82.783,528.178 81.832,527.525 80.888,527.502 L 80.888,527.479 C 81.319,527.423 81.472,527.142 81.678,526.713 L 82.72,524.583 C 83.206,523.592 83.493,524.211 83.493,523.704 L 83.493,523.501 L 82.146,523.501 L 80.977,525.981 C 80.457,527.096 80.349,527.355 79.729,527.355 L 79.451,527.355 L 79.451,524.515"
                 style="fill:#292526;fill-opacity:1;fill-rule:nonzero;stroke:none"
                 id="path213" />
              <path
                 d="M 60.177,516.457 C 60.177,517.967 59.917,520.244 58.317,520.244 C 56.718,520.244 56.404,518.125 56.404,516.536 C 56.404,515.026 56.664,512.75 58.263,512.75 C 59.863,512.75 60.177,514.869 60.177,516.457 z M 55.362,516.502 C 55.362,518.643 56.53,520.661 58.344,520.661 C 60.159,520.661 61.219,518.632 61.219,516.491 C 61.219,514.35 60.051,512.333 58.236,512.333 C 56.422,512.333 55.362,514.361 55.362,516.502"
                 style="fill:#292526;fill-opacity:1;fill-rule:nonzero;stroke:none"
                 id="path215" />
              <path
                 d="M 61.668,514.587 C 62.001,514.587 61.893,512.84 63.357,512.84 C 64.085,512.84 64.704,513.46 64.704,514.406 C 64.704,516.649 61.515,515.68 61.515,518.553 C 61.515,519.759 62.306,520.661 63.267,520.661 C 63.95,520.661 64.264,520.199 64.408,520.199 C 64.48,520.199 64.543,520.278 64.588,520.345 L 64.938,520.345 L 64.938,518.553 L 64.66,518.553 C 64.264,518.553 64.471,520.188 63.258,520.188 C 62.683,520.188 62.207,519.714 62.207,518.971 C 62.207,517.032 65.414,517.866 65.414,514.925 C 65.414,513.471 64.498,512.333 63.339,512.333 C 62.764,512.333 62.189,512.705 62.018,512.705 C 61.92,512.705 61.83,512.581 61.794,512.479 L 61.381,512.479 L 61.381,514.587 L 61.668,514.587"
                 style="fill:#292526;fill-opacity:1;fill-rule:nonzero;stroke:none"
                 id="path217" />
              <path
                 d="M 65.474,512.739 C 65.474,513.234 65.968,512.615 65.968,513.55 L 65.968,519.444 C 65.968,520.379 65.484,519.759 65.484,520.255 L 65.484,520.458 L 69.121,520.458 C 69.309,520.458 69.553,520.503 69.724,520.627 L 69.724,518.666 L 69.553,518.666 C 68.959,518.666 69.498,519.951 68.205,519.951 L 66.893,519.951 L 66.893,516.908 L 67.585,516.908 C 68.547,516.908 67.953,517.663 68.511,517.663 L 68.664,517.663 L 68.664,515.589 L 68.511,515.589 C 67.927,515.589 68.438,516.401 67.585,516.401 L 66.893,516.401 L 66.893,513.043 L 68.393,513.043 C 70.101,513.043 69.265,514.598 69.939,514.598 L 70.101,514.598 L 70.101,512.536 L 65.474,512.536 L 65.474,512.739"
                 style="fill:#292526;fill-opacity:1;fill-rule:nonzero;stroke:none"
                 id="path219" />
              <path
                 d="M 72.812,516.728 C 73.629,516.728 74.214,517.134 74.214,518.362 C 74.214,519.5 73.567,519.984 73.09,519.984 L 71.932,519.984 L 71.932,516.728 L 72.812,516.728 z M 71.932,516.255 L 71.932,513.55 C 71.932,512.615 72.426,513.234 72.426,512.739 L 72.426,512.536 L 70.503,512.536 L 70.503,512.739 C 70.503,513.234 71.006,512.615 71.006,513.55 L 71.006,519.444 C 71.006,520.379 70.495,519.759 70.495,520.255 L 70.495,520.458 L 73.333,520.458 C 74.16,520.458 75.211,519.928 75.211,518.429 C 75.211,516.807 74.069,516.255 73.027,516.255 L 71.932,516.255"
                 style="fill:#292526;fill-opacity:1;fill-rule:nonzero;stroke:none"
                 id="path221" />
              <path
                 d="M 84.65,518.037 L 85.644,518.037 C 86.878,518.037 86.183,519.013 86.95,519.013 L 87.153,519.013 L 87.153,516.397 L 86.89,516.397 C 86.171,516.397 86.842,517.401 85.644,517.401 L 84.65,517.401 L 84.65,513.809 C 84.65,512.635 85.309,513.412 85.309,512.79 L 85.309,512.536 L 82.757,512.536 L 82.757,512.79 C 82.757,513.412 83.416,512.635 83.416,513.809 L 83.416,521.205 C 83.416,522.379 82.757,521.601 82.757,522.223 L 82.757,522.478 L 87.668,522.478 C 87.92,522.478 88.244,522.534 88.471,522.69 L 88.471,520.172 L 88.172,520.172 C 87.381,520.172 88.124,521.841 86.411,521.841 L 84.65,521.841 L 84.65,518.037"
                 style="fill:#292526;fill-opacity:1;fill-rule:nonzero;stroke:none"
                 id="path223" />
              <path
                 d="M 92.425,516.457 C 92.425,517.967 92.164,520.244 90.566,520.244 C 88.966,520.244 88.652,518.125 88.652,516.536 C 88.652,515.026 88.913,512.75 90.512,512.75 C 92.111,512.75 92.425,514.869 92.425,516.457 z M 87.61,516.502 C 87.61,518.643 88.778,520.661 90.592,520.661 C 92.407,520.661 93.467,518.632 93.467,516.491 C 93.467,514.35 92.299,512.333 90.485,512.333 C 88.669,512.333 87.61,514.361 87.61,516.502"
                 style="fill:#292526;fill-opacity:1;fill-rule:nonzero;stroke:none"
                 id="path225" />
              <path
                 d="M 79.372,516.919 L 79.372,519.444 C 79.372,520.379 78.878,519.759 78.878,520.255 L 78.878,520.458 L 80.791,520.458 L 80.791,520.255 C 80.791,519.759 80.297,520.379 80.297,519.444 L 80.297,513.55 C 80.297,512.615 80.791,513.234 80.791,512.739 L 80.791,512.536 L 78.878,512.536 L 78.878,512.739 C 78.878,513.234 79.372,512.615 79.372,513.55 L 79.372,516.344 L 76.533,516.344 L 76.533,513.55 C 76.533,512.615 77.027,513.234 77.027,512.739 L 77.027,512.536 L 75.114,512.536 L 75.114,512.739 C 75.114,513.234 75.607,512.615 75.607,513.55 L 75.607,519.444 C 75.607,520.379 75.114,519.759 75.114,520.255 L 75.114,520.458 L 77.027,520.458 L 77.027,520.255 C 77.027,519.759 76.533,520.379 76.533,519.444 L 76.533,516.919 L 79.372,516.919"
                 style="fill:#292526;fill-opacity:1;fill-rule:nonzero;stroke:none"
                 id="path227" />
              <path
                 d="M 101.728,516.863 C 102.429,516.863 103.166,517.246 103.166,518.486 C 103.166,519.511 102.555,519.984 101.98,519.984 L 100.83,519.984 L 100.83,516.863 L 101.728,516.863 z M 100.83,513.55 C 100.83,512.615 101.324,513.234 101.324,512.739 L 101.324,512.536 L 99.401,512.536 L 99.401,512.739 C 99.401,513.234 99.905,512.615 99.905,513.55 L 99.905,519.444 C 99.905,520.379 99.411,519.759 99.411,520.255 L 99.411,520.458 L 102.249,520.458 C 102.914,520.458 104.163,520.063 104.163,518.542 C 104.163,517.212 103.211,516.559 102.267,516.536 L 102.267,516.514 C 102.699,516.457 102.851,516.175 103.058,515.747 L 104.1,513.618 C 104.585,512.625 104.873,513.246 104.873,512.739 L 104.873,512.536 L 103.525,512.536 L 102.357,515.015 C 101.836,516.131 101.728,516.39 101.109,516.39 L 100.83,516.39 L 100.83,513.55"
                 style="fill:#292526;fill-opacity:1;fill-rule:nonzero;stroke:none"
                 id="path229" />
              <path
                 d="M 105.245,512.536 L 105.245,512.739 C 105.245,513.234 105.739,512.615 105.739,513.55 L 105.739,519.444 C 105.739,520.379 105.245,519.759 105.245,520.255 L 105.245,520.458 L 107.158,520.458 L 107.158,520.255 C 107.158,519.759 106.664,520.379 106.664,519.444 L 106.664,513.55 C 106.664,512.615 107.158,513.234 107.158,512.739 L 107.158,512.536 L 105.245,512.536"
                 style="fill:#292526;fill-opacity:1;fill-rule:nonzero;stroke:none"
                 id="path231" />
              <path
                 d="M 107.749,512.739 C 107.749,513.234 108.243,512.615 108.243,513.55 L 108.243,519.444 C 108.243,520.379 107.758,519.759 107.758,520.255 L 107.758,520.458 L 111.396,520.458 C 111.585,520.458 111.828,520.503 111.998,520.627 L 111.998,518.666 L 111.828,518.666 C 111.235,518.666 111.773,519.951 110.48,519.951 L 109.169,519.951 L 109.169,516.908 L 109.86,516.908 C 110.821,516.908 110.228,517.663 110.785,517.663 L 110.938,517.663 L 110.938,515.589 L 110.785,515.589 C 110.201,515.589 110.714,516.401 109.86,516.401 L 109.169,516.401 L 109.169,513.043 L 110.668,513.043 C 112.375,513.043 111.54,514.598 112.214,514.598 L 112.375,514.598 L 112.375,512.536 L 107.749,512.536 L 107.749,512.739"
                 style="fill:#292526;fill-opacity:1;fill-rule:nonzero;stroke:none"
                 id="path233" />
              <path
                 d="M 114.946,516.863 C 115.646,516.863 116.383,517.246 116.383,518.486 C 116.383,519.511 115.772,519.984 115.197,519.984 L 114.047,519.984 L 114.047,516.863 L 114.946,516.863 z M 114.047,513.55 C 114.047,512.615 114.541,513.234 114.541,512.739 L 114.541,512.536 L 112.619,512.536 L 112.619,512.739 C 112.619,513.234 113.122,512.615 113.122,513.55 L 113.122,519.444 C 113.122,520.379 112.628,519.759 112.628,520.255 L 112.628,520.458 L 115.467,520.458 C 116.131,520.458 117.38,520.063 117.38,518.542 C 117.38,517.212 116.428,516.559 115.484,516.536 L 115.484,516.514 C 115.915,516.457 116.068,516.175 116.275,515.747 L 117.317,513.618 C 117.802,512.625 118.089,513.246 118.089,512.739 L 118.089,512.536 L 116.743,512.536 L 115.575,515.015 C 115.053,516.131 114.946,516.39 114.326,516.39 L 114.047,516.39 L 114.047,513.55"
                 style="fill:#292526;fill-opacity:1;fill-rule:nonzero;stroke:none"
                 id="path235" />
              <path
                 d="M 99.087,520.458 L 99.087,520.255 C 99.087,519.657 98.566,520.503 98.566,518.88 L 98.566,515.06 C 98.566,513.268 97.641,512.333 96.258,512.333 C 94.802,512.333 93.922,513.223 93.922,514.981 L 93.922,519.444 C 93.922,520.379 93.428,519.759 93.428,520.255 L 93.428,520.458 L 95.341,520.458 L 95.341,520.255 C 95.341,519.759 94.847,520.379 94.847,519.444 L 94.847,514.88 C 94.847,513.618 95.368,512.874 96.392,512.874 C 97.946,512.874 98.072,514.519 98.072,515.127 L 98.072,518.88 C 98.072,520.503 97.524,519.657 97.524,520.255 L 97.524,520.458 L 99.087,520.458"
                 style="fill:#292526;fill-opacity:1;fill-rule:nonzero;stroke:none"
                 id="path237" />
              <path
                 d="M 84.056,525.606 C 84.388,525.606 84.281,523.859 85.745,523.859 C 86.472,523.859 87.093,524.479 87.093,525.426 C 87.093,527.668 83.903,526.699 83.903,529.573 C 83.903,530.779 84.694,531.68 85.655,531.68 C 86.338,531.68 86.652,531.218 86.796,531.218 C 86.868,531.218 86.931,531.297 86.975,531.365 L 87.325,531.365 L 87.325,529.573 L 87.048,529.573 C 86.652,529.573 86.859,531.207 85.646,531.207 C 85.071,531.207 84.595,530.733 84.595,529.989 C 84.595,528.051 87.802,528.885 87.802,525.944 C 87.802,524.491 86.885,523.352 85.727,523.352 C 85.152,523.352 84.577,523.724 84.406,523.724 C 84.307,523.724 84.218,523.6 84.182,523.499 L 83.769,523.499 L 83.769,525.606 L 84.056,525.606"
                 style="fill:#292526;fill-opacity:1;fill-rule:nonzero;stroke:none"
                 id="path239" />
              <path
                 d="M 52.181,510.944 C 52.214,511.246 51.946,511.468 51.641,511.468 C 51.336,511.468 51.089,511.221 51.089,510.916 L 51.089,510.888 C 51.075,510.404 51.476,510.197 51.476,510.197 C 52.761,509.701 54.777,510.585 54.791,513.885 L 54.777,521.799 C 54.804,522.211 55.581,521.954 55.537,522.544 L 52.802,522.544 C 52.703,521.948 53.614,522.196 53.581,521.782 L 53.575,512.311 C 53.603,511.358 53.223,510.519 52.669,510.396 C 52.457,510.35 52.139,510.57 52.181,510.944"
                 style="fill:#292526;fill-opacity:1;fill-rule:nonzero;stroke:none"
                 id="path241" />
              <path
                 d="M 53.792,507.128 C 53.952,507.128 53.9,506.446 54.601,506.446 C 54.949,506.446 55.245,506.688 55.245,507.058 C 55.245,507.934 53.72,507.555 53.72,508.678 C 53.72,509.148 54.097,509.501 54.557,509.501 C 54.884,509.501 55.035,509.32 55.103,509.32 C 55.138,509.32 55.168,509.351 55.189,509.378 L 55.357,509.378 L 55.357,508.678 L 55.224,508.678 C 55.035,508.678 55.134,509.316 54.553,509.316 C 54.278,509.316 54.05,509.131 54.05,508.841 C 54.05,508.083 55.585,508.409 55.585,507.26 C 55.585,506.692 55.146,506.247 54.592,506.247 C 54.317,506.247 54.042,506.392 53.96,506.392 C 53.913,506.392 53.87,506.344 53.853,506.304 L 53.655,506.304 L 53.655,507.128 L 53.792,507.128"
                 style="fill:#292526;fill-opacity:1;fill-rule:nonzero;stroke:none"
                 id="path243" />
              <path
                 d="M 58.198,508.519 L 58.09,508.519 C 57.828,508.519 57.992,509.316 57.252,509.316 C 56.552,509.316 56.41,508.44 56.41,507.885 C 56.41,507.299 56.621,506.472 57.351,506.472 C 57.768,506.472 57.957,506.736 58.15,506.965 L 58.297,506.846 C 58.035,506.458 57.751,506.247 57.274,506.247 C 56.397,506.247 55.933,507.058 55.933,507.876 C 55.933,508.59 56.358,509.501 57.226,509.501 C 57.665,509.501 57.854,509.263 57.961,509.263 C 58,509.263 58.022,509.294 58.03,509.329 L 58.198,509.329 L 58.198,508.519"
                 style="fill:#292526;fill-opacity:1;fill-rule:nonzero;stroke:none"
                 id="path245" />
              <path
                 d="M 58.641,506.326 L 58.641,506.406 C 58.641,506.6 58.877,506.357 58.877,506.723 L 58.877,509.025 C 58.877,509.391 58.641,509.148 58.641,509.343 L 58.641,509.422 L 59.556,509.422 L 59.556,509.343 C 59.556,509.148 59.32,509.391 59.32,509.025 L 59.32,506.723 C 59.32,506.357 59.556,506.6 59.556,506.406 L 59.556,506.326 L 58.641,506.326"
                 style="fill:#292526;fill-opacity:1;fill-rule:nonzero;stroke:none"
                 id="path247" />
              <path
                 d="M 59.94,506.406 C 59.94,506.6 60.176,506.357 60.176,506.723 L 60.176,509.025 C 60.176,509.391 59.944,509.148 59.944,509.343 L 59.944,509.422 L 61.685,509.422 C 61.775,509.422 61.891,509.439 61.973,509.488 L 61.973,508.722 L 61.891,508.722 C 61.607,508.722 61.865,509.224 61.246,509.224 L 60.619,509.224 L 60.619,508.035 L 60.95,508.035 C 61.41,508.035 61.126,508.33 61.392,508.33 L 61.465,508.33 L 61.465,507.52 L 61.392,507.52 C 61.113,507.52 61.358,507.837 60.95,507.837 L 60.619,507.837 L 60.619,506.525 L 61.337,506.525 C 62.153,506.525 61.754,507.132 62.076,507.132 L 62.153,507.132 L 62.153,506.326 L 59.94,506.326 L 59.94,506.406"
                 style="fill:#292526;fill-opacity:1;fill-rule:nonzero;stroke:none"
                 id="path249" />
              <path
                 d="M 63.006,506.943 C 63.006,506.326 63.303,506.666 63.303,506.406 L 63.303,506.326 L 62.499,506.326 L 62.499,506.406 C 62.499,506.666 62.77,506.326 62.77,506.943 L 62.77,509.025 C 62.77,509.391 62.525,509.148 62.525,509.343 L 62.525,509.422 L 63.333,509.422 L 64.747,507.22 L 64.747,508.805 C 64.747,509.422 64.485,509.083 64.485,509.343 L 64.485,509.422 L 65.246,509.422 L 65.246,509.343 C 65.246,509.083 64.983,509.422 64.983,508.805 L 64.983,506.326 L 64.777,506.326 L 63.006,509.083 L 63.006,506.943"
                 style="fill:#292526;fill-opacity:1;fill-rule:nonzero;stroke:none"
                 id="path251" />
              <path
                 d="M 67.778,508.519 L 67.671,508.519 C 67.409,508.519 67.572,509.316 66.833,509.316 C 66.133,509.316 65.991,508.44 65.991,507.885 C 65.991,507.299 66.201,506.472 66.932,506.472 C 67.348,506.472 67.538,506.736 67.731,506.965 L 67.878,506.846 C 67.615,506.458 67.331,506.247 66.855,506.247 C 65.977,506.247 65.513,507.058 65.513,507.876 C 65.513,508.59 65.939,509.501 66.807,509.501 C 67.246,509.501 67.435,509.263 67.542,509.263 C 67.581,509.263 67.603,509.294 67.611,509.329 L 67.778,509.329 L 67.778,508.519"
                 style="fill:#292526;fill-opacity:1;fill-rule:nonzero;stroke:none"
                 id="path253" />
              <path
                 d="M 68.208,506.406 C 68.208,506.6 68.445,506.357 68.445,506.723 L 68.445,509.025 C 68.445,509.391 68.213,509.148 68.213,509.343 L 68.213,509.422 L 69.954,509.422 C 70.044,509.422 70.16,509.439 70.241,509.488 L 70.241,508.722 L 70.16,508.722 C 69.876,508.722 70.134,509.224 69.515,509.224 L 68.888,509.224 L 68.888,508.035 L 69.219,508.035 C 69.678,508.035 69.395,508.33 69.662,508.33 L 69.735,508.33 L 69.735,507.52 L 69.662,507.52 C 69.382,507.52 69.627,507.837 69.219,507.837 L 68.888,507.837 L 68.888,506.525 L 69.605,506.525 C 70.422,506.525 70.022,507.132 70.345,507.132 L 70.422,507.132 L 70.422,506.326 L 68.208,506.326 L 68.208,506.406"
                 style="fill:#292526;fill-opacity:1;fill-rule:nonzero;stroke:none"
                 id="path255" />
              <path
                 d="M 70.843,507.128 C 71.002,507.128 70.951,506.446 71.651,506.446 C 72,506.446 72.296,506.688 72.296,507.058 C 72.296,507.934 70.77,507.555 70.77,508.678 C 70.77,509.148 71.148,509.501 71.608,509.501 C 71.935,509.501 72.085,509.32 72.154,509.32 C 72.188,509.32 72.218,509.351 72.24,509.378 L 72.408,509.378 L 72.408,508.678 L 72.275,508.678 C 72.085,508.678 72.184,509.316 71.604,509.316 C 71.329,509.316 71.101,509.131 71.101,508.841 C 71.101,508.083 72.635,508.409 72.635,507.26 C 72.635,506.692 72.197,506.247 71.643,506.247 C 71.368,506.247 71.093,506.392 71.011,506.392 C 70.964,506.392 70.921,506.344 70.904,506.304 L 70.705,506.304 L 70.705,507.128 L 70.843,507.128"
                 style="fill:#292526;fill-opacity:1;fill-rule:nonzero;stroke:none"
                 id="path257" />
              <path
                 d="M 73.357,506.26 C 73.216,506.26 73.095,506.384 73.095,506.529 C 73.095,506.674 73.216,506.798 73.357,506.798 C 73.499,506.798 73.62,506.674 73.62,506.529 C 73.62,506.384 73.499,506.26 73.357,506.26"
                 style="fill:#292526;fill-opacity:1;fill-rule:nonzero;stroke:none"
                 id="path259" />
              <path
                 d="M 75.7,506.723 C 75.7,506.357 75.958,506.6 75.958,506.406 L 75.958,506.326 L 75,506.326 L 75,506.406 C 75,506.6 75.258,506.357 75.258,506.723 L 75.258,509.224 L 75.021,509.224 C 74.226,509.224 74.656,508.7 74.307,508.7 L 74.226,508.7 L 74.226,509.488 C 74.307,509.439 74.424,509.422 74.514,509.422 L 76.444,509.422 C 76.534,509.422 76.65,509.439 76.732,509.488 L 76.732,508.7 L 76.65,508.7 C 76.302,508.7 76.732,509.224 75.937,509.224 L 75.7,509.224 L 75.7,506.723"
                 style="fill:#292526;fill-opacity:1;fill-rule:nonzero;stroke:none"
                 id="path261" />
              <path
                 d="M 77.032,506.406 C 77.032,506.6 77.268,506.357 77.268,506.723 L 77.268,509.025 C 77.268,509.391 77.036,509.148 77.036,509.343 L 77.036,509.422 L 78.777,509.422 C 78.867,509.422 78.983,509.439 79.065,509.488 L 79.065,508.722 L 78.983,508.722 C 78.7,508.722 78.957,509.224 78.338,509.224 L 77.711,509.224 L 77.711,508.035 L 78.042,508.035 C 78.502,508.035 78.218,508.33 78.485,508.33 L 78.558,508.33 L 78.558,507.52 L 78.485,507.52 C 78.205,507.52 78.45,507.837 78.042,507.837 L 77.711,507.837 L 77.711,506.525 L 78.429,506.525 C 79.245,506.525 78.845,507.132 79.168,507.132 L 79.245,507.132 L 79.245,506.326 L 77.032,506.326 L 77.032,506.406"
                 style="fill:#292526;fill-opacity:1;fill-rule:nonzero;stroke:none"
                 id="path263" />
              <path
                 d="M 81.837,508.519 L 81.73,508.519 C 81.467,508.519 81.631,509.316 80.891,509.316 C 80.191,509.316 80.049,508.44 80.049,507.885 C 80.049,507.299 80.26,506.472 80.99,506.472 C 81.407,506.472 81.596,506.736 81.79,506.965 L 81.936,506.846 C 81.673,506.458 81.39,506.247 80.913,506.247 C 80.036,506.247 79.572,507.058 79.572,507.876 C 79.572,508.59 79.997,509.501 80.866,509.501 C 81.304,509.501 81.493,509.263 81.6,509.263 C 81.639,509.263 81.66,509.294 81.669,509.329 L 81.837,509.329 L 81.837,508.519"
                 style="fill:#292526;fill-opacity:1;fill-rule:nonzero;stroke:none"
                 id="path265" />
              <path
                 d="M 84.325,508.039 L 84.325,509.025 C 84.325,509.391 84.089,509.148 84.089,509.343 L 84.089,509.422 L 85.004,509.422 L 85.004,509.343 C 85.004,509.148 84.768,509.391 84.768,509.025 L 84.768,506.723 C 84.768,506.357 85.004,506.6 85.004,506.406 L 85.004,506.326 L 84.089,506.326 L 84.089,506.406 C 84.089,506.6 84.325,506.357 84.325,506.723 L 84.325,507.815 L 82.967,507.815 L 82.967,506.723 C 82.967,506.357 83.204,506.6 83.204,506.406 L 83.204,506.326 L 82.288,506.326 L 82.288,506.406 C 82.288,506.6 82.525,506.357 82.525,506.723 L 82.525,509.025 C 82.525,509.391 82.288,509.148 82.288,509.343 L 82.288,509.422 L 83.204,509.422 L 83.204,509.343 C 83.204,509.148 82.967,509.391 82.967,509.025 L 82.967,508.039 L 84.325,508.039"
                 style="fill:#292526;fill-opacity:1;fill-rule:nonzero;stroke:none"
                 id="path267" />
              <path
                 d="M 85.866,506.943 C 85.866,506.326 86.163,506.666 86.163,506.406 L 86.163,506.326 L 85.359,506.326 L 85.359,506.406 C 85.359,506.666 85.63,506.326 85.63,506.943 L 85.63,509.025 C 85.63,509.391 85.385,509.148 85.385,509.343 L 85.385,509.422 L 86.193,509.422 L 87.607,507.22 L 87.607,508.805 C 87.607,509.422 87.345,509.083 87.345,509.343 L 87.345,509.422 L 88.105,509.422 L 88.105,509.343 C 88.105,509.083 87.843,509.422 87.843,508.805 L 87.843,506.326 L 87.637,506.326 L 85.866,509.083 L 85.866,506.943"
                 style="fill:#292526;fill-opacity:1;fill-rule:nonzero;stroke:none"
                 id="path269" />
              <path
                 d="M 90.58,507.859 C 90.58,508.449 90.455,509.338 89.69,509.338 C 88.927,509.338 88.777,508.51 88.777,507.889 C 88.777,507.299 88.902,506.41 89.664,506.41 C 90.429,506.41 90.58,507.238 90.58,507.859 z M 88.279,507.876 C 88.279,508.713 88.837,509.501 89.703,509.501 C 90.571,509.501 91.078,508.708 91.078,507.872 C 91.078,507.036 90.519,506.247 89.651,506.247 C 88.786,506.247 88.279,507.04 88.279,507.876"
                 style="fill:#292526;fill-opacity:1;fill-rule:nonzero;stroke:none"
                 id="path271" />
              <path
                 d="M 91.365,506.406 C 91.365,506.6 91.602,506.357 91.602,506.723 L 91.602,509.025 C 91.602,509.391 91.37,509.148 91.37,509.343 L 91.37,509.422 L 92.281,509.422 L 92.281,509.343 C 92.281,509.148 92.044,509.391 92.044,509.025 L 92.044,506.525 L 92.741,506.525 C 93.454,506.525 93.17,507.106 93.433,507.106 L 93.532,507.106 L 93.532,506.326 L 91.365,506.326 L 91.365,506.406"
                 style="fill:#292526;fill-opacity:1;fill-rule:nonzero;stroke:none"
                 id="path273" />
              <path
                 d="M 96.061,507.859 C 96.061,508.449 95.936,509.338 95.171,509.338 C 94.405,509.338 94.255,508.51 94.255,507.889 C 94.255,507.299 94.38,506.41 95.145,506.41 C 95.91,506.41 96.061,507.238 96.061,507.859 z M 93.757,507.876 C 93.757,508.713 94.315,509.501 95.184,509.501 C 96.052,509.501 96.559,508.708 96.559,507.872 C 96.559,507.036 96,506.247 95.132,506.247 C 94.264,506.247 93.757,507.04 93.757,507.876"
                 style="fill:#292526;fill-opacity:1;fill-rule:nonzero;stroke:none"
                 id="path275" />
              <path
                 d="M 99.542,506.591 C 99.542,506.353 98.682,506.247 98.489,506.247 C 97.522,506.247 96.933,506.82 96.933,507.819 C 96.933,508.779 97.539,509.501 98.299,509.501 C 98.742,509.501 98.927,509.245 99.013,509.245 C 99.069,509.245 99.073,509.277 99.099,509.316 L 99.271,509.316 L 99.271,508.497 L 99.159,508.497 C 98.845,508.497 99.06,509.316 98.304,509.316 C 97.616,509.316 97.431,508.471 97.431,507.885 C 97.431,507.194 97.612,506.432 98.429,506.432 C 98.876,506.432 98.975,506.67 98.975,507.079 C 98.975,507.828 98.691,507.41 98.691,507.718 L 98.691,507.797 L 99.46,507.797 C 99.4,507.704 99.409,507.625 99.409,507.516 L 99.409,506.868 C 99.409,506.745 99.409,506.706 99.542,506.692 L 99.542,506.591"
                 style="fill:#292526;fill-opacity:1;fill-rule:nonzero;stroke:none"
                 id="path277" />
              <path
                 d="M 99.921,506.326 L 99.921,506.406 C 99.921,506.6 100.157,506.357 100.157,506.723 L 100.157,509.025 C 100.157,509.391 99.921,509.148 99.921,509.343 L 99.921,509.422 L 100.836,509.422 L 100.836,509.343 C 100.836,509.148 100.6,509.391 100.6,509.025 L 100.6,506.723 C 100.6,506.357 100.836,506.6 100.836,506.406 L 100.836,506.326 L 99.921,506.326"
                 style="fill:#292526;fill-opacity:1;fill-rule:nonzero;stroke:none"
                 id="path279" />
              <path
                 d="M 101.187,506.406 C 101.187,506.6 101.423,506.357 101.423,506.723 L 101.423,509.025 C 101.423,509.391 101.191,509.148 101.191,509.343 L 101.191,509.422 L 102.932,509.422 C 103.022,509.422 103.138,509.439 103.219,509.488 L 103.219,508.722 L 103.138,508.722 C 102.854,508.722 103.112,509.224 102.493,509.224 L 101.866,509.224 L 101.866,508.035 L 102.197,508.035 C 102.657,508.035 102.373,508.33 102.639,508.33 L 102.712,508.33 L 102.712,507.52 L 102.639,507.52 C 102.36,507.52 102.605,507.837 102.197,507.837 L 101.866,507.837 L 101.866,506.525 L 102.584,506.525 C 103.4,506.525 103,507.132 103.323,507.132 L 103.4,507.132 L 103.4,506.326 L 101.187,506.326 L 101.187,506.406"
                 style="fill:#292526;fill-opacity:1;fill-rule:nonzero;stroke:none"
                 id="path281" />
              <path
                 d="M 104.363,506.529 C 104.363,506.674 104.243,506.798 104.1,506.798 C 103.959,506.798 103.839,506.674 103.839,506.529 C 103.839,506.384 103.959,506.26 104.1,506.26 C 104.243,506.26 104.363,506.384 104.363,506.529"
                 style="fill:#292526;fill-opacity:1;fill-rule:nonzero;stroke:none"
                 id="path283" />
              <path
                 d="M 105.283,507.128 C 105.442,507.128 105.39,506.446 106.091,506.446 C 106.439,506.446 106.735,506.688 106.735,507.058 C 106.735,507.934 105.209,507.555 105.209,508.678 C 105.209,509.148 105.588,509.501 106.047,509.501 C 106.374,509.501 106.524,509.32 106.593,509.32 C 106.628,509.32 106.658,509.351 106.68,509.378 L 106.847,509.378 L 106.847,508.678 L 106.714,508.678 C 106.524,508.678 106.623,509.316 106.043,509.316 C 105.768,509.316 105.54,509.131 105.54,508.841 C 105.54,508.083 107.075,508.409 107.075,507.26 C 107.075,506.692 106.636,506.247 106.082,506.247 C 105.807,506.247 105.532,506.392 105.45,506.392 C 105.403,506.392 105.36,506.344 105.343,506.304 L 105.145,506.304 L 105.145,507.128 L 105.283,507.128"
                 style="fill:#292526;fill-opacity:1;fill-rule:nonzero;stroke:none"
                 id="path285" />
              <path
                 d="M 108.508,508.691 L 107.996,507.401 L 109.028,507.401 L 108.508,508.691 z M 109.101,507.189 L 107.91,507.189 L 107.803,506.903 C 107.777,506.837 107.73,506.718 107.73,506.648 C 107.73,506.45 107.949,506.582 107.949,506.406 L 107.949,506.326 L 107.184,506.326 L 107.184,506.406 C 107.184,506.595 107.356,506.362 107.554,506.855 L 108.396,508.973 L 108.344,509.105 C 108.327,509.145 108.284,509.237 108.284,509.281 C 108.284,509.338 108.435,509.413 108.46,509.431 C 108.469,509.435 108.602,509.523 108.624,509.523 C 108.645,509.523 108.663,509.452 108.667,509.444 L 109.75,506.758 C 109.913,506.349 110.046,506.608 110.046,506.406 L 110.046,506.326 L 109.084,506.326 L 109.084,506.406 C 109.084,506.573 109.307,506.446 109.307,506.617 C 109.307,506.688 109.264,506.793 109.239,506.855 L 109.101,507.189"
                 style="fill:#292526;fill-opacity:1;fill-rule:nonzero;stroke:none"
                 id="path287" />
              <path
                 d="M 110.719,506.943 C 110.719,506.326 111.016,506.666 111.016,506.406 L 111.016,506.326 L 110.212,506.326 L 110.212,506.406 C 110.212,506.666 110.483,506.326 110.483,506.943 L 110.483,509.025 C 110.483,509.391 110.238,509.148 110.238,509.343 L 110.238,509.422 L 111.046,509.422 L 112.46,507.22 L 112.46,508.805 C 112.46,509.422 112.198,509.083 112.198,509.343 L 112.198,509.422 L 112.959,509.422 L 112.959,509.343 C 112.959,509.083 112.697,509.422 112.697,508.805 L 112.697,506.326 L 112.49,506.326 L 110.719,509.083 L 110.719,506.943"
                 style="fill:#292526;fill-opacity:1;fill-rule:nonzero;stroke:none"
                 id="path289" />
              <path
                 d="M 114.665,506.723 C 114.665,506.357 114.923,506.6 114.923,506.406 L 114.923,506.326 L 113.964,506.326 L 113.964,506.406 C 113.964,506.6 114.222,506.357 114.222,506.723 L 114.222,509.224 L 113.986,509.224 C 113.191,509.224 113.621,508.7 113.272,508.7 L 113.191,508.7 L 113.191,509.488 C 113.272,509.439 113.388,509.422 113.479,509.422 L 115.408,509.422 C 115.499,509.422 115.615,509.439 115.697,509.488 L 115.697,508.7 L 115.615,508.7 C 115.267,508.7 115.697,509.224 114.901,509.224 L 114.665,509.224 L 114.665,506.723"
                 style="fill:#292526;fill-opacity:1;fill-rule:nonzero;stroke:none"
                 id="path291" />
              <path
                 d="M 116.676,509.752 L 117.179,510.157 C 117.257,510.223 117.368,510.324 117.476,510.324 C 117.583,510.324 117.661,510.237 117.661,510.131 C 117.661,509.99 117.54,509.937 117.433,509.88 L 117.339,509.836 L 116.78,509.585 L 116.676,509.752 z M 115.971,506.406 C 115.971,506.6 116.208,506.357 116.208,506.723 L 116.208,509.025 C 116.208,509.391 115.976,509.148 115.976,509.343 L 115.976,509.422 L 117.717,509.422 C 117.807,509.422 117.923,509.439 118.005,509.488 L 118.005,508.722 L 117.923,508.722 C 117.639,508.722 117.897,509.224 117.278,509.224 L 116.651,509.224 L 116.651,508.035 L 116.982,508.035 C 117.442,508.035 117.158,508.33 117.425,508.33 L 117.497,508.33 L 117.497,507.52 L 117.425,507.52 C 117.145,507.52 117.39,507.837 116.982,507.837 L 116.651,507.837 L 116.651,506.525 L 117.368,506.525 C 118.185,506.525 117.785,507.132 118.108,507.132 L 118.185,507.132 L 118.185,506.326 L 115.971,506.326 L 115.971,506.406"
                 style="fill:#292526;fill-opacity:1;fill-rule:nonzero;stroke:none"
                 id="path293" />
            </g>
          </g>
        </g>
      </g>
    </g>
  </g>
</svg>
